<svg width="22" height="23" viewBox="0 0 22 23" fill="none" xmlns="http://www.w3.org/2000/svg">
<path d="M20.8408 8.935H19.9932V8.88889H10.5227V13.3333H16.4697C15.6021 15.9206 13.2707 17.7778 10.5227 17.7778C7.03602 17.7778 4.20909 14.7928 4.20909 11.1111C4.20909 7.42945 7.03602 4.44445 10.5227 4.44445C12.1322 4.44445 13.5964 5.08556 14.7113 6.13278L17.6877 2.99C15.8083 1.14056 13.2944 0 10.5227 0C4.71155 0 0 4.975 0 11.1111C0 17.2472 4.71155 22.2222 10.5227 22.2222C16.3339 22.2222 21.0455 17.2472 21.0455 11.1111C21.0455 10.3661 20.9729 9.63889 20.8408 8.935Z" fill="#FFC107"/>
<path d="M1.21338 5.93945L4.67062 8.61667C5.60609 6.17111 7.87164 4.44445 10.5228 4.44445C12.1323 4.44445 13.5965 5.08556 14.7114 6.13278L17.6878 2.99C15.8084 1.14056 13.2945 0 10.5228 0C6.48106 0 2.97594 2.40945 1.21338 5.93945Z" fill="#FF3D00"/>
<path d="M10.5231 22.2222C13.2412 22.2222 15.7108 21.1238 17.5781 19.3377L14.3213 16.4277C13.2293 17.3046 11.895 17.7789 10.5231 17.7777C7.78617 17.7777 5.46223 15.9349 4.58674 13.3633L1.15527 16.1549C2.89679 19.7533 6.43348 22.2222 10.5231 22.2222Z" fill="#4CAF50"/>
<path d="M20.841 8.93478H19.9934V8.88867H10.5229V13.3331H16.4699C16.0549 14.5645 15.3073 15.6404 14.3195 16.4281L14.3211 16.427L17.5779 19.337C17.3475 19.5581 21.0457 16.6665 21.0457 11.1109C21.0457 10.3659 20.9731 9.63867 20.841 8.93478Z" fill="#1976D2"/>
</svg>
