<svg width="54" height="58" viewBox="0 0 54 58" fill="none" xmlns="http://www.w3.org/2000/svg">
<path d="M42.8679 26.3043C44.4393 40.8206 50.6085 45.2076 50.6085 45.2076H2C2 45.2076 10.1014 39.4466 10.1014 19.283C10.1014 14.6993 11.8085 10.3033 14.8471 7.06209C17.8857 3.82087 22.007 2 26.3043 2C27.2151 2 28.1182 2.08182 29.0047 2.24167" stroke="#2A435D" stroke-width="3" stroke-linecap="round" stroke-linejoin="round"/>
<path d="M44.6055 17C48.7477 17 52.1055 13.6421 52.1055 9.5C52.1055 5.35788 48.7477 2 44.6055 2C40.4632 2 37.1055 5.35788 37.1055 9.5C37.1055 13.6421 40.4632 17 44.6055 17Z" fill="#E7392E" stroke="#E7392E" stroke-width="3" stroke-linecap="round" stroke-linejoin="round"/>
<path d="M30.9755 53.3091C30.5007 54.1276 29.8194 54.807 28.9993 55.2791C28.1794 55.7514 27.2499 56.0001 26.3037 56.0001C25.3574 56.0001 24.4279 55.7514 23.608 55.2791C22.7882 54.807 22.1066 54.1276 21.6318 53.3091" stroke="#2A435D" stroke-width="3" stroke-linecap="round" stroke-linejoin="round"/>
</svg>
