<svg width="24" height="24" viewBox="0 0 24 24" fill="none" xmlns="http://www.w3.org/2000/svg">
<path d="M19.9602 8.96001C19.2902 8.22001 18.2802 7.79001 16.8802 7.64001V6.88001C16.8802 5.51001 16.3002 4.19001 15.2802 3.27001C14.2502 2.33001 12.9102 1.89001 11.5202 2.02001C9.13023 2.25001 7.12023 4.56001 7.12023 7.06001V7.64001C5.72023 7.79001 4.71023 8.22001 4.04023 8.96001C3.07023 10.04 3.10023 11.48 3.21023 12.48L3.91023 18.05C4.12023 20 4.91023 22 9.21023 22H14.7902C19.0902 22 19.8802 20 20.0902 18.06L20.7902 12.47C20.9002 11.48 20.9302 10.04 19.9602 8.96001ZM11.6602 3.41001C12.6602 3.32001 13.6102 3.63001 14.3502 4.30001C15.0802 4.96001 15.4902 5.90001 15.4902 6.88001V7.58001H8.51023V7.06001C8.51023 5.28001 9.98023 3.57001 11.6602 3.41001ZM12.0002 18.58C9.91023 18.58 8.21023 16.88 8.21023 14.79C8.21023 12.7 9.91023 11 12.0002 11C14.0902 11 15.7902 12.7 15.7902 14.79C15.7902 16.88 14.0902 18.58 12.0002 18.58Z" stroke="#2A435D" stroke-width="1.25"/>
<path d="M11.4299 16.64C11.2399 16.64 11.0499 16.57 10.8999 16.42L9.90988 15.43C9.61988 15.14 9.61988 14.66 9.90988 14.37C10.1999 14.08 10.6799 14.08 10.9699 14.37L11.4499 14.85L13.0499 13.37C13.3499 13.09 13.8299 13.11 14.1099 13.41C14.3899 13.71 14.3699 14.19 14.0699 14.47L11.9399 16.44C11.7899 16.57 11.6099 16.64 11.4299 16.64Z" stroke="#2A435D" stroke-width="1.25"/>
</svg>
