<svg width="24" height="24" viewBox="0 0 24 24" fill="none" xmlns="http://www.w3.org/2000/svg">
<path d="M15.6048 3.87399L15.6048 3.87399V3.88V4.82C15.6048 5.51482 15.0446 6.075 14.3498 6.075H9.63977C8.94494 6.075 8.38477 5.51482 8.38477 4.82V3.88C8.38477 3.18949 8.95062 2.625 9.64977 2.625H14.3498C15.0501 2.625 15.6114 3.18934 15.6048 3.87399Z" stroke="#2A435D" stroke-width="1.25"/>
<path d="M14.35 8.45998C16.3497 8.45998 17.9827 6.83156 17.99 4.83352C17.9907 4.83381 17.9916 4.83419 17.9926 4.83468C19.1638 5.45987 19.96 6.69883 19.96 8.11998V17.53C19.96 19.5758 18.2858 21.25 16.24 21.25H7.76004C5.71425 21.25 4.04004 19.5758 4.04004 17.53V8.11998C4.04004 6.69883 4.83626 5.45987 6.00748 4.83468C6.00848 4.83419 6.00934 4.83381 6.01006 4.83352C6.01741 6.83156 7.65034 8.45998 9.65004 8.45998H14.35ZM11.8704 17.2603L15.8704 13.2603C16.4533 12.6774 16.4533 11.7225 15.8704 11.1396C15.2875 10.5568 14.3326 10.5568 13.7497 11.1396L10.81 14.0793L10.3704 13.6397C9.78748 13.0568 8.8326 13.0568 8.24971 13.6397C7.66682 14.2225 7.66682 15.1774 8.24971 15.7603L9.74971 17.2603C10.0478 17.5584 10.4319 17.7 10.81 17.7C11.1882 17.7 11.5723 17.5584 11.8704 17.2603Z" stroke="#2A435D" stroke-width="1.5"/>
</svg>
