<svg width="22" height="17" viewBox="0 0 22 17" fill="none" xmlns="http://www.w3.org/2000/svg">
<path d="M7.99974 16C4.92426 16 2.69745 16 1.25176 14.0909C-0.193924 12.1818 4.92428 10.75 7.99976 10.75C11.0752 10.75 16.1942 12.1818 14.7481 14.0909C13.3021 15.9999 11.0752 16 7.99974 16Z" stroke="#2A435D" stroke-width="1.5"/>
<path d="M14.812 14.0002L14.1844 13.5895L13.4253 14.7497L14.8117 14.7502L14.812 14.0002ZM20.7838 12.3456L20.1836 11.8959L20.1836 11.8959L20.7838 12.3456ZM9.58496 10.8547L9.13269 10.2564L7.65517 11.3734L9.49355 11.5991L9.58496 10.8547ZM14.9995 13.2502C14.9365 13.2502 14.8742 13.2502 14.8123 13.2502L14.8117 14.7502C14.874 14.7502 14.9366 14.7502 14.9995 14.7502V13.2502ZM20.1836 11.8959C19.6947 12.5484 19.0828 12.8826 18.2577 13.0601C17.3904 13.2466 16.3426 13.2502 14.9995 13.2502V14.7502C16.2924 14.7502 17.5171 14.7537 18.5731 14.5266C19.6712 14.2904 20.6334 13.7973 21.384 12.7953L20.1836 11.8959ZM14.9995 10.2002C16.2298 10.2002 17.8888 10.495 19.0625 10.9722C19.6654 11.2174 20.032 11.4681 20.1872 11.6627C20.2207 11.7048 20.2365 11.7348 20.2436 11.7519C20.2471 11.7603 20.2486 11.7657 20.2491 11.7682C20.2494 11.7696 20.2496 11.7704 20.2496 11.7708C20.2497 11.7713 20.2497 11.7715 20.2497 11.7715C20.2497 11.7716 20.2497 11.7717 20.2497 11.772C20.2497 11.7723 20.2496 11.773 20.2494 11.7742C20.2491 11.7765 20.248 11.7818 20.2449 11.7907C20.2386 11.8084 20.2227 11.8437 20.1836 11.8959L21.384 12.7953C21.6181 12.4828 21.7623 12.119 21.7488 11.7208C21.7355 11.3274 21.5714 10.9927 21.3601 10.7277C20.9588 10.2243 20.2961 9.85458 19.6275 9.58271C18.2582 9.02588 16.4052 8.7002 14.9995 8.7002V10.2002ZM10.0372 11.453C10.4804 11.118 11.2769 10.7964 12.2378 10.5601C13.1803 10.3283 14.1907 10.2002 14.9995 10.2002V8.7002C14.0542 8.7002 12.923 8.84684 11.8795 9.1035C10.8545 9.35563 9.8207 9.73633 9.13269 10.2564L10.0372 11.453ZM9.49355 11.5991C10.892 11.7709 12.3601 12.1504 13.3269 12.643C13.8219 12.8952 14.0922 13.1307 14.2004 13.3013C14.2465 13.3738 14.2497 13.4133 14.2497 13.429C14.2497 13.4439 14.2467 13.4942 14.1844 13.5895L15.4396 14.4108C15.6329 14.1154 15.7488 13.7856 15.7497 13.4328C15.7506 13.081 15.6369 12.7654 15.467 12.4976C15.1432 11.9874 14.5856 11.6009 14.0079 11.3065C12.8291 10.7059 11.1724 10.294 9.67638 10.1103L9.49355 11.5991Z" fill="#2A435D"/>
<ellipse cx="8.00022" cy="4.75" rx="3.88889" ry="3.75" stroke="#2A435D" stroke-width="1.5"/>
<path d="M11.8465 5.30576L11.1052 5.19156L11.0766 5.37744L11.1391 5.55485L11.8465 5.30576ZM11.7217 3.65878L10.9847 3.51985L10.9498 3.70467L11.0063 3.88406L11.7217 3.65878ZM11.1389 4.75C11.1389 4.90045 11.1274 5.04785 11.1052 5.19156L12.5877 5.41996C12.6215 5.20099 12.6389 4.97723 12.6389 4.75H11.1389ZM11.0063 3.88406C11.0924 4.1575 11.1389 4.44795 11.1389 4.75H12.6389C12.6389 4.29295 12.5684 3.85064 12.437 3.4335L11.0063 3.88406ZM12.4587 3.79771C12.6758 2.64603 13.72 1.75 15 1.75V0.25C13.0122 0.25 11.3378 1.64625 10.9847 3.51985L12.4587 3.79771ZM15 1.75C16.4447 1.75 17.5833 2.88707 17.5833 4.25H19.0833C19.0833 2.02307 17.2371 0.25 15 0.25V1.75ZM17.5833 4.25C17.5833 5.61292 16.4447 6.75 15 6.75V8.25C17.2371 8.25 19.0833 6.47692 19.0833 4.25H17.5833ZM15 6.75C13.8562 6.75 12.8977 6.03311 12.5539 5.05668L11.1391 5.55485C11.6943 7.13176 13.22 8.25 15 8.25V6.75Z" fill="#2A435D"/>
</svg>
