<svg width="24" height="24" viewBox="0 0 24 24" fill="none" xmlns="http://www.w3.org/2000/svg">
<path d="M2.08622 6.15952C2.04729 6.08749 2.09945 6 2.18133 6H21.8187C21.9006 6 21.9527 6.08749 21.9138 6.15952L21.176 7.52448C21.0156 7.82121 21.0156 8.17879 21.176 8.47552L21.743 9.52448C21.9034 9.82121 21.9034 10.1788 21.743 10.4755L21.176 11.5245C21.0156 11.8212 21.0156 12.1788 21.176 12.4755L21.743 13.5245C21.9034 13.8212 21.9034 14.1788 21.743 14.4755L21.176 15.5245C21.0156 15.8212 21.0156 16.1788 21.176 16.4755L21.9138 17.8405C21.9527 17.9125 21.9006 18 21.8187 18H2.18133C2.09945 18 2.04729 17.9125 2.08622 17.8405L2.82404 16.4755C2.98444 16.1788 2.98444 15.8212 2.82404 15.5245L2.25704 14.4755C2.09664 14.1788 2.09664 13.8212 2.25704 13.5245L2.82404 12.4755C2.98444 12.1788 2.98444 11.8212 2.82404 11.5245L2.25704 10.4755C2.09664 10.1788 2.09664 9.82121 2.25704 9.52448L2.82404 8.47552C2.98444 8.17879 2.98444 7.82121 2.82404 7.52448L2.08622 6.15952Z" stroke="#2A435D" stroke-width="1.5"/>
<path d="M14.5 13.1745C14.5 13.6454 14.3347 14.0539 14.0041 14.4C13.6952 14.7236 13.2518 14.9369 12.6741 15.0401C12.6216 15.0494 12.5826 15.0947 12.5826 15.148V15.8919C12.5826 15.9516 12.5342 16 12.4745 16H11.699C11.6393 16 11.5909 15.9516 11.5909 15.8919V15.1903C11.5909 15.1335 11.5469 15.0865 11.4903 15.0816C11.114 15.0491 10.7564 14.9808 10.4174 14.8766C10.0843 14.7691 9.80285 14.6408 9.57296 14.4918C9.52995 14.4639 9.51459 14.4088 9.53493 14.3618L9.98533 13.32C10.0122 13.2577 10.0891 13.2354 10.1469 13.271C10.3799 13.4144 10.6436 13.5326 10.938 13.6255C11.2796 13.7333 11.6157 13.7872 11.9463 13.7872C12.5744 13.7872 12.8884 13.6255 12.8884 13.3021C12.8884 13.1319 12.7975 13.0071 12.6157 12.9277C12.4394 12.8426 12.1529 12.7546 11.7562 12.6638C11.3209 12.5674 10.9573 12.4652 10.6653 12.3574C10.3733 12.244 10.1226 12.0652 9.91322 11.8213C9.70386 11.5773 9.59917 11.2482 9.59917 10.834C9.59917 10.3461 9.76997 9.92908 10.1116 9.58298C10.4362 9.24866 10.8977 9.03733 11.4961 8.949C11.5501 8.94103 11.5909 8.89516 11.5909 8.84057V8.10811C11.5909 8.0484 11.6393 8 11.699 8H12.4745C12.5342 8 12.5826 8.0484 12.5826 8.10811V8.82037C12.5826 8.8763 12.6253 8.92287 12.6809 8.929C12.9595 8.95972 13.227 9.01318 13.4835 9.08936C13.7417 9.16463 13.9741 9.25987 14.1807 9.37507C14.227 9.40093 14.2457 9.45748 14.2259 9.50671L13.802 10.5587C13.7777 10.6191 13.706 10.6443 13.6484 10.6142C13.1354 10.3466 12.6369 10.2128 12.1529 10.2128C11.8278 10.2128 11.5909 10.2638 11.4421 10.366C11.2934 10.4624 11.219 10.5901 11.219 10.7489C11.219 10.9078 11.3072 11.0269 11.4835 11.1064C11.6598 11.1858 11.9435 11.2681 12.3347 11.3532C12.7755 11.4496 13.1391 11.5546 13.4256 11.6681C13.7176 11.7759 13.9683 11.9518 14.1777 12.1957C14.3926 12.434 14.5 12.7603 14.5 13.1745Z" fill="#2A435D"/>
</svg>
