<svg width="24" height="24" viewBox="0 0 24 24" fill="none" xmlns="http://www.w3.org/2000/svg">
<path fill-rule="evenodd" clip-rule="evenodd" d="M10.75 3C11.0766 3 11.3544 3.2087 11.4573 3.5H12.0427C12.1456 3.2087 12.4234 3 12.75 3C13.0766 3 13.3544 3.2087 13.4573 3.5H21.25C21.6642 3.5 22 3.83579 22 4.25C22 4.66421 21.6642 5 21.25 5H13.5V5.34865L21.3981 6.45865C21.8082 6.51629 22.094 6.89555 22.0364 7.30573C21.9787 7.71591 21.5995 8.0017 21.1893 7.94405L13.5 6.86339V8.25C13.5 8.66421 13.1642 9 12.75 9C12.3358 9 12 8.66421 12 8.25V6.65258L11.5 6.58231V11.5H12H20.8871C21.7779 11.5 22.5 12.2221 22.5 13.1129C22.5 17.2769 19.4656 20.7321 15.4873 21.3879C15.4226 21.7363 15.1171 22 14.75 22H9.25C8.8829 22 8.57741 21.7363 8.51266 21.3879C4.53445 20.7321 1.5 17.2769 1.5 13.1129C1.5 12.2221 2.22213 11.5 3.1129 11.5H10V6.3715L8.81094 6.20439C8.40076 6.14674 8.11497 5.76749 8.17262 5.35731C8.1974 5.18096 8.28163 5.02761 8.4022 4.91465C8.16311 4.78928 8 4.53869 8 4.25C8 3.83579 8.33579 3.5 8.75 3.5H10.0427C10.1456 3.2087 10.4234 3 10.75 3ZM12 5.13784V5H11.5V5.06757L12 5.13784ZM3.1129 13H10.75H12H20.8871C20.9495 13 21 13.0505 21 13.1129C21 13.5393 20.9613 13.9566 20.8871 14.3615C20.8786 14.4078 20.8697 14.4538 20.8603 14.4997L20.8603 14.5C20.2184 17.6388 17.4414 20 14.1129 20H13H9.8871C6.5586 20 3.78159 17.6388 3.13974 14.5L3.13969 14.4997C3.1303 14.4538 3.12137 14.4078 3.1129 14.3615C3.03874 13.9566 3 13.5393 3 13.1129C3 13.0505 3.05055 13 3.1129 13Z" fill="#2A435D"/>
</svg>
