<svg width="31" height="31" viewBox="0 0 31 31" fill="none" xmlns="http://www.w3.org/2000/svg">
<g filter="url(#filter0_d_1032_1898)">
<path d="M23.1 9.22C21.29 9.22 20.55 7.94 21.45 6.37C21.97 5.46 21.66 4.3 20.75 3.78L19.02 2.79C18.23 2.32 17.21 2.6 16.74 3.39L16.63 3.58C15.73 5.15 14.25 5.15 13.34 3.58L13.23 3.39C12.78 2.6 11.76 2.32 10.97 2.79L9.24 3.78C8.33 4.3 8.02 5.47 8.54 6.38C9.45 7.94 8.71 9.22 6.9 9.22C5.86 9.22 5 10.07 5 11.12V12.88C5 13.92 5.85 14.78 6.9 14.78C8.71 14.78 9.45 16.06 8.54 17.63C8.02 18.54 8.33 19.7 9.24 20.22L10.97 21.21C11.76 21.68 12.78 21.4 13.25 20.61L13.36 20.42C14.26 18.85 15.74 18.85 16.65 20.42L16.76 20.61C17.23 21.4 18.25 21.68 19.04 21.21L20.77 20.22C21.68 19.7 21.99 18.53 21.47 17.63C20.56 16.06 21.3 14.78 23.11 14.78C24.15 14.78 25.01 13.93 25.01 12.88V11.12C25 10.08 24.15 9.22 23.1 9.22ZM15 15.25C13.21 15.25 11.75 13.79 11.75 12C11.75 10.21 13.21 8.75 15 8.75C16.79 8.75 18.25 10.21 18.25 12C18.25 13.79 16.79 15.25 15 15.25Z" stroke="#2A435D" stroke-width="2"/>
</g>
<defs>
<filter id="filter0_d_1032_1898" x="-1" y="0" width="32" height="32" filterUnits="userSpaceOnUse" color-interpolation-filters="sRGB">
<feFlood flood-opacity="0" result="BackgroundImageFix"/>
<feColorMatrix in="SourceAlpha" type="matrix" values="0 0 0 0 0 0 0 0 0 0 0 0 0 0 0 0 0 0 127 0" result="hardAlpha"/>
<feOffset dy="4"/>
<feGaussianBlur stdDeviation="2"/>
<feComposite in2="hardAlpha" operator="out"/>
<feColorMatrix type="matrix" values="0 0 0 0 0 0 0 0 0 0 0 0 0 0 0 0 0 0 0.25 0"/>
<feBlend mode="normal" in2="BackgroundImageFix" result="effect1_dropShadow_1032_1898"/>
<feBlend mode="normal" in="SourceGraphic" in2="effect1_dropShadow_1032_1898" result="shape"/>
</filter>
</defs>
</svg>
