<svg width="20" height="16" viewBox="0 0 20 16" fill="none" xmlns="http://www.w3.org/2000/svg">
<path fill-rule="evenodd" clip-rule="evenodd" d="M2 0C0.895431 0 0 0.895431 0 2V3.79876C0 4.03001 0.14572 4.2329 0.34987 4.34153C1.51834 4.96324 2.33341 6.3674 2.33341 8C2.33341 9.6326 1.51834 11.0368 0.34987 11.6585C0.145721 11.7671 0 11.97 0 12.2012V14C0 15.1046 0.895431 16 2 16H18C19.1046 16 20 15.1046 20 14V12.2012C20 11.9699 19.8543 11.767 19.6502 11.6584C18.4818 11.0367 17.6667 9.63254 17.6667 8C17.6667 6.36746 18.4818 4.96335 19.6502 4.3416C19.8543 4.23297 20 4.03008 20 3.79885V2C20 0.895431 19.1046 0 18 0H2ZM12.25 1V2.75C12.25 3.16421 12.5858 3.5 13 3.5C13.4142 3.5 13.75 3.16421 13.75 2.75V1H12.25ZM13.75 6.25C13.75 5.83579 13.4142 5.5 13 5.5C12.5858 5.5 12.25 5.83579 12.25 6.25V9.75C12.25 10.1642 12.5858 10.5 13 10.5C13.4142 10.5 13.75 10.1642 13.75 9.75V6.25ZM13.75 13.25C13.75 12.8358 13.4142 12.5 13 12.5C12.5858 12.5 12.25 12.8358 12.25 13.25V15H13.75V13.25Z" fill="#2A435D"/>
</svg>
